HIERARCHY
ROOT Pelvis
{
	OFFSET 0.000000 0.000000 0.000000
	CHANNELS 6 Xposition Yposition Zposition Xrotation Yrotation Zrotation
	JOINT LeftUpLeg_virtual
	{
		OFFSET 0.000000 0.000000 0.000000
		CHANNELS 3 Xrotation Yrotation Zrotation
		JOINT LeftUpLeg
		{
			OFFSET 18.735201 -5.666702 -4.541200
			CHANNELS 3 Xrotation Yrotation Zrotation
			JOINT LeftLeg
			{
				OFFSET -0.021200 -31.938179 0.493100
				CHANNELS 3 Xrotation Yrotation Zrotation
				JOINT LeftFoot
				{
					OFFSET 0.021200 -31.938179 -4.336299
					CHANNELS 3 Xrotation Yrotation Zrotation
					JOINT LeftToeBase
					{
						OFFSET 0.943001 -26.722000 15.023500
						CHANNELS 3 Xrotation Yrotation Zrotation
						End Site
						{
							OFFSET 0 0 0
						}
					}
				}
			}
		}
	}
	JOINT RightUpLeg_virtual
	{
		OFFSET 0.000000 0.000000 0.000000
		CHANNELS 3 Xrotation Yrotation Zrotation
		JOINT RightUpLeg
		{
			OFFSET -18.735201 -5.666702 -4.541200
			CHANNELS 3 Xrotation Yrotation Zrotation
			JOINT RightLeg
			{
				OFFSET 0.018946 -31.938133 0.493100
				CHANNELS 3 Xrotation Yrotation Zrotation
				JOINT RightFoot
				{
					OFFSET -0.018946 -31.938126 -4.336299
					CHANNELS 3 Xrotation Yrotation Zrotation
					JOINT RightToeBase
					{
						OFFSET -0.943001 -26.722004 15.023500
						CHANNELS 3 Xrotation Yrotation Zrotation
						End Site
						{
							OFFSET 0 0 0
						}
					}
				}
			}
		}
	}
	JOINT Hips_virtual
	{
		OFFSET 0.000000 0.000000 0.000000
		CHANNELS 3 Xrotation Yrotation Zrotation
		JOINT Hips
		{
			OFFSET -0.000000 -0.000000 -0.000000
			CHANNELS 3 Xrotation Yrotation Zrotation
			JOINT Spine
			{
				OFFSET 0.000000 10.199997 -0.299500
				CHANNELS 3 Xrotation Yrotation Zrotation
				JOINT Spine1
				{
					OFFSET 0.000000 11.900002 -1.516600
					CHANNELS 3 Xrotation Yrotation Zrotation
					JOINT Spine2
					{
						OFFSET 0.000000 13.600006 -2.842500
						CHANNELS 3 Xrotation Yrotation Zrotation
						JOINT Neck_virtual
						{
							OFFSET 0.000000 0.000000 0.000000
							CHANNELS 3 Xrotation Yrotation Zrotation
							JOINT Neck
							{
								OFFSET 0.000000 9.624100 -2.890100
								CHANNELS 3 Xrotation Yrotation Zrotation
								JOINT Head
								{
									OFFSET 0.000000 14.068802 -1.351900
									CHANNELS 3 Xrotation Yrotation Zrotation
									End Site
									{
										OFFSET 0 0 0
									}
								}
							}
						}
						JOINT LeftShoulder_virtual
						{
							OFFSET 0.000000 0.000000 0.000000
							CHANNELS 3 Xrotation Yrotation Zrotation
							JOINT LeftShoulder
							{
								OFFSET 15.263000 10.923401 -0.547700
								CHANNELS 3 Xrotation Yrotation Zrotation
								JOINT LeftArm
								{
									OFFSET 25.438599 -2.830597 -13.032500
									CHANNELS 3 Xrotation Yrotation Zrotation
									JOINT LeftForeArm
									{
										OFFSET 29.960503 0.000000 0.000000
										CHANNELS 3 Xrotation Yrotation Zrotation
										JOINT LeftHand
										{
											OFFSET 27.849251 0.000000 0.000000
											CHANNELS 3 Xrotation Yrotation Zrotation
											End Site
											{
												OFFSET 0 0 0
											}
										}
									}
								}
							}
						}
						JOINT RightShoulder_virtual
						{
							OFFSET 0.000000 0.000000 0.000000
							CHANNELS 3 Xrotation Yrotation Zrotation
							JOINT RightShoulder
							{
								OFFSET -15.263000 10.923401 -0.547700
								CHANNELS 3 Xrotation Yrotation Zrotation
								JOINT RightArm
								{
									OFFSET -25.438599 -2.830597 -13.032500
									CHANNELS 3 Xrotation Yrotation Zrotation
									JOINT RightForeArm
									{
										OFFSET -29.960503 0.000000 0.000000
										CHANNELS 3 Xrotation Yrotation Zrotation
										JOINT RightHand
										{
											OFFSET -27.849251 0.000000 0.000000
											CHANNELS 3 Xrotation Yrotation Zrotation
											End Site
											{
												OFFSET 0 0 0
											}
										}
									}
								}
							}
						}
					}
				}
			}
		}
	}
}
MOTION
Frames: 9
Frame Time: 0.03333333
4.544971 70.904190 137.597153 0.000000 0.000000 0.000000 10.261429 -18.405685 0.362110 34.401942 33.995860 7.711290 20.065918 21.607058 -3.085999 -18.686506 -4.806187 -33.744092 0.000000 0.000000 0.000000 10.261429 -18.405685 0.362110 -84.303693 -4.932844 -9.971817 65.425754 4.904147 -7.689027 8.016279 6.504851 7.487705 0.000000 0.000000 0.000000 10.261429 -18.405685 0.362110 0.000000 -0.000001 0.000000 2.438035 -5.677390 2.039719 4.899762 -10.154805 2.662431 0.000000 0.000000 0.000000 4.899748 -10.154744 2.662416 1.784087 0.646258 3.121208 0.000000 0.000000 0.000000 4.899748 -10.154744 2.662416 -5.170239 -18.664281 -18.158319 -46.432797 -18.052711 -34.485598 -9.204831 -38.217060 16.317078 0.000000 0.000000 0.000000 4.899748 -10.154744 2.662416 0.248731 -2.144193 4.457621 -14.470970 21.706652 4.671655 37.782247 8.308581 -4.381102 0.000000 0.000000 0.000000 
3.764725 71.493752 141.764130 0.000000 0.000000 0.000000 13.057576 -17.710785 -0.827261 32.836671 36.734482 10.079527 13.767563 25.421501 -1.677790 -5.061621 -9.010253 -34.446847 0.000000 0.000000 0.000000 13.057576 -17.710785 -0.827261 -83.548042 -6.187269 -10.380358 69.057652 6.254647 -7.739059 1.233863 3.982995 8.490332 0.000000 0.000000 0.000000 13.057576 -17.710785 -0.827261 0.000000 0.000000 0.000000 2.482406 -7.191280 2.476944 5.005439 -13.331995 3.278268 0.000000 0.000000 0.000000 5.005469 -13.331909 3.278241 1.368817 1.302167 3.313792 0.000000 0.000000 0.000000 5.005469 -13.331909 3.278241 -5.462529 -21.822328 -15.277255 -41.539838 -28.186690 -42.662666 -9.093015 -26.803735 12.045810 0.000000 0.000000 0.000000 5.005469 -13.331909 3.278241 0.571908 -3.041704 8.393508 -12.235277 14.739591 3.552611 31.986903 9.211506 -2.529622 0.000000 0.000000 0.000000 
3.100681 71.105286 145.312805 0.000000 0.000000 0.000000 15.276761 -23.427113 -2.059266 26.935302 37.443059 14.305449 15.091781 27.141430 -0.340384 14.837954 -13.021369 -31.284445 0.000000 0.000000 0.000000 15.276761 -23.427113 -2.059266 -82.651668 -5.919441 -4.402138 68.802715 5.169165 -7.818769 -1.120099 4.260239 10.139146 0.000000 0.000000 0.000000 15.276761 -23.427113 -2.059266 0.000000 0.000000 0.000000 2.516427 -8.049035 2.879601 4.996712 -14.597192 3.473513 0.000000 0.000000 0.000000 4.996704 -14.597161 3.473527 0.892580 1.932401 3.464685 0.000000 0.000000 0.000000 4.996704 -14.597161 3.473527 -5.377034 -23.703603 -13.318976 -42.422343 -33.040296 -48.437762 -9.159006 -21.147563 7.965478 0.000000 0.000000 0.000000 4.996704 -14.597161 3.473527 0.640807 -4.012256 9.540032 -11.078687 12.213169 3.421811 25.842340 9.919234 -0.269013 0.000000 0.000000 0.000000 
1.978942 70.819786 149.503265 0.000000 0.000000 0.000000 16.239425 -32.697454 -2.539221 19.432196 37.134311 16.488430 18.466603 25.582354 -2.382098 33.936048 -14.741036 -13.017033 0.000000 0.000000 0.000000 16.239425 -32.697454 -2.539221 -80.922066 -5.438793 2.775046 67.956960 5.081751 -7.774732 -2.739426 6.261967 11.088073 0.000000 0.000000 0.000000 16.239425 -32.697454 -2.539221 0.000000 0.000000 0.000000 2.449613 -7.863420 2.657988 4.901194 -14.438192 3.413748 0.000000 0.000000 0.000000 4.901240 -14.438147 3.413743 0.404665 2.511174 3.572706 0.000000 0.000000 0.000000 4.901240 -14.438147 3.413743 -5.157791 -24.333206 -12.292904 -44.167767 -34.537640 -52.409831 -9.134704 -17.605767 3.835012 0.000000 0.000000 0.000000 4.901240 -14.438147 3.413743 0.571549 -4.957461 9.352155 -10.481211 10.565235 3.211370 19.502977 10.395730 1.972021 0.000000 0.000000 0.000000 
0.768216 71.610497 153.915405 0.000000 0.000000 0.000000 15.712063 -40.044419 -2.908782 9.981723 36.381996 19.534770 28.550372 21.827609 -3.627242 39.641738 -12.769822 1.820419 0.000000 0.000000 0.000000 15.712063 -40.044419 -2.908782 -76.968889 -4.311993 7.177067 66.840846 5.428112 -7.685265 -5.322303 8.655153 11.706532 0.000000 0.000000 0.000000 15.712063 -40.044419 -2.908782 -0.000001 -0.000002 -0.000000 2.399340 -7.515978 2.517431 4.808405 -13.989918 3.304513 0.000000 0.000000 0.000000 4.808438 -13.990126 3.304598 -0.050750 3.010480 3.641999 0.000000 0.000000 0.000000 4.808438 -13.990126 3.304598 -5.014288 -24.209491 -12.063866 -45.768544 -34.792383 -54.633013 -8.986526 -15.490767 0.047438 0.000000 0.000000 0.000000 4.808438 -13.990126 3.304598 0.548282 -5.780494 9.082009 -10.753119 9.687325 2.595250 13.138245 10.738102 3.535811 0.000000 0.000000 0.000000 
-0.270639 73.286148 158.491714 0.000000 0.000000 0.000000 14.787539 -45.139641 -2.697596 -3.400368 32.771647 27.999193 50.289665 22.569797 -4.357145 29.360436 -11.745745 3.042147 0.000000 0.000000 0.000000 14.787539 -45.139641 -2.697596 -71.892481 -0.909910 9.457267 64.909945 5.505048 -7.566085 -8.572239 10.210636 13.139646 0.000000 0.000000 0.000000 14.787539 -45.139641 -2.697596 0.000001 -0.000001 0.000002 2.334012 -7.049423 2.183851 4.695487 -13.322004 3.018850 0.000000 0.000000 0.000000 4.695423 -13.321825 3.018841 -0.430755 3.401729 3.679783 0.000000 0.000000 0.000000 4.695423 -13.321825 3.018841 -4.736585 -24.033771 -11.562549 -47.608669 -35.222514 -55.319136 -8.725358 -14.972060 -2.859730 0.000000 0.000000 0.000000 4.695423 -13.321825 3.018841 0.489543 -6.448410 8.415421 -12.910671 9.604456 1.956851 6.881786 11.381505 4.245364 0.000000 0.000000 0.000000 
-1.576433 75.568527 163.301392 0.000000 0.000000 0.000000 14.152032 -48.191936 -1.915546 -18.120104 27.191897 35.321490 69.021903 23.858903 -3.376692 16.448086 -9.209276 6.787604 0.000000 0.000000 0.000000 14.152032 -48.191936 -1.915546 -65.858801 3.704567 9.976949 62.143902 5.284591 -7.408824 -12.488589 10.656189 14.874159 0.000000 0.000000 0.000000 14.152032 -48.191936 -1.915546 0.000000 0.000000 0.000000 2.244924 -6.376793 1.567907 4.573188 -12.484957 2.588476 0.000000 0.000000 0.000000 4.573159 -12.484968 2.588518 -0.689407 3.657253 3.695668 0.000000 0.000000 0.000000 4.573159 -12.484968 2.588518 -4.108527 -23.662866 -10.374146 -50.189985 -37.221102 -54.819307 -8.386758 -16.198350 -4.333040 0.000000 0.000000 0.000000 4.573159 -12.484968 2.588518 0.372874 -7.124370 7.242097 -16.551917 9.814653 1.562697 0.815427 12.834030 4.295120 0.000000 0.000000 0.000000 
-2.596077 77.918350 167.696609 0.000000 0.000000 0.000000 12.445260 -49.115853 -1.004730 -30.255979 20.303750 39.237763 81.023194 21.449968 -0.785747 5.155686 -8.799938 7.830662 0.000000 0.000000 0.000000 12.445260 -49.115853 -1.004730 -59.163256 8.974613 8.315083 59.734137 5.725967 -7.210461 -16.307562 9.199006 16.182684 0.000000 0.000000 0.000000 12.445260 -49.115853 -1.004730 0.000000 -0.000001 0.000000 2.166543 -5.715133 0.884073 4.440400 -11.538524 1.966150 0.000000 0.000000 0.000000 4.440399 -11.538529 1.966185 -0.784834 3.748751 3.699309 0.000000 0.000000 0.000000 4.440399 -11.538529 1.966185 -2.527654 -22.507171 -7.315139 -53.654169 -41.530473 -52.612332 -7.593253 -21.434858 -5.121141 0.000000 0.000000 0.000000 4.440399 -11.538529 1.966185 0.155734 -7.812773 5.596939 -21.435615 10.777746 1.532085 -5.020443 15.600596 3.057493 0.000000 0.000000 0.000000 
-3.194544 79.505875 171.604691 0.000000 0.000000 0.000000 9.832283 -49.205940 -0.192154 -38.513422 13.232564 40.181156 86.618280 17.699836 1.469819 -1.459261 -8.485307 6.460960 0.000000 0.000000 0.000000 9.832283 -49.205940 -0.192154 -52.937791 13.781535 5.037405 58.968226 5.544698 -7.165761 -20.327852 8.210687 17.765751 0.000000 0.000000 0.000000 9.832283 -49.205940 -0.192154 0.000000 -0.000002 0.000000 2.121213 -5.136519 0.385439 4.320884 -10.530105 1.215163 0.000000 0.000000 0.000000 4.320912 -10.530103 1.215153 -0.285648 3.510513 3.480960 0.000000 0.000000 0.000000 4.320912 -10.530103 1.215153 -0.241344 -20.061529 -2.596770 -57.245984 -47.230396 -48.212898 -6.524105 -31.016517 -6.070506 0.000000 0.000000 0.000000 4.320912 -10.530103 1.215153 -0.313165 -8.505958 2.309050 -29.075149 12.430067 2.531229 -10.802180 23.876776 0.431519 0.000000 0.000000 0.000000 
